ISO-10303-21;
HEADER;
FILE_DESCRIPTION ((), '1');
FILE_NAME ('D:\\Moldex3D\\02. AI\\Model\\model step\\G15.stp', '2026-05-07T17:27:28', ('Unknown'), ('Unknown'), 'HarmonyWare STEP v2.1.6', 'HarmonyWare Translators', '');
FILE_SCHEMA (('CONFIG_CONTROL_DESIGN'));
ENDSEC;

DATA;
#1 = CARTESIAN_POINT ('', (0., 25.855, 2.053));
#2 = CARTESIAN_POINT ('', (-5., 25.855, 2.053));
#3 = B_SPLINE_CURVE_WITH_KNOTS ('', 1, (#1, #2), .UNSPECIFIED., .F., .U., (2, 2), (0., 1.), .UNSPECIFIED.);
#4 = GEOMETRIC_CURVE_SET ('', (#3));
#5 = CARTESIAN_POINT ('', (0., 0., 0.));
#6 = VERTEX_POINT ('', #5);
#7 = CARTESIAN_POINT ('', (0., 0., 2.053));
#8 = VERTEX_POINT ('', #7);
#9 = CARTESIAN_POINT ('', (0., 0., 0.));
#10 = CARTESIAN_POINT ('', (0., 0., 2.053));
#11 = B_SPLINE_CURVE_WITH_KNOTS ('', 1, (#9, #10), .UNSPECIFIED., .F., .U., (2, 2), (0., 2.053), .UNSPECIFIED.);
#12 = EDGE_CURVE ('', #6, #8, #11, .T.);
#13 = ORIENTED_EDGE ('', *, *, #12, .F.);
#14 = CARTESIAN_POINT ('', (81.77, 0., 0.));
#15 = VERTEX_POINT ('', #14);
#16 = CARTESIAN_POINT ('', (0., 0., 0.));
#17 = CARTESIAN_POINT ('', (81.77, 0., 0.));
#18 = B_SPLINE_CURVE_WITH_KNOTS ('', 1, (#16, #17), .UNSPECIFIED., .F., .U., (2, 2), (0., 81.77), .UNSPECIFIED.);
#19 = EDGE_CURVE ('', #6, #15, #18, .T.);
#20 = ORIENTED_EDGE ('', *, *, #19, .T.);
#21 = CARTESIAN_POINT ('', (81.77, 0., 2.053));
#22 = VERTEX_POINT ('', #21);
#23 = CARTESIAN_POINT ('', (81.77, 0., 0.));
#24 = CARTESIAN_POINT ('', (81.77, 0., 2.053));
#25 = B_SPLINE_CURVE_WITH_KNOTS ('', 1, (#23, #24), .UNSPECIFIED., .F., .U., (2, 2), (0., 2.053), .UNSPECIFIED.);
#26 = EDGE_CURVE ('', #15, #22, #25, .T.);
#27 = ORIENTED_EDGE ('', *, *, #26, .T.);
#28 = CARTESIAN_POINT ('', (0., 0., 2.053));
#29 = CARTESIAN_POINT ('', (81.77, 0., 2.053));
#30 = B_SPLINE_CURVE_WITH_KNOTS ('', 1, (#28, #29), .UNSPECIFIED., .F., .U., (2, 2), (0., 81.77), .UNSPECIFIED.);
#31 = EDGE_CURVE ('', #8, #22, #30, .T.);
#32 = ORIENTED_EDGE ('', *, *, #31, .F.);
#33 = EDGE_LOOP ('', (#13, #20, #27, #32));
#34 = FACE_OUTER_BOUND ('', #33, .T.);
#35 = CARTESIAN_POINT ('', (0., 0., 0.));
#36 = CARTESIAN_POINT ('', (0., 0., 2.053));
#37 = CARTESIAN_POINT ('', (81.77, 0., 0.));
#38 = CARTESIAN_POINT ('', (81.77, 0., 2.053));
#39 = B_SPLINE_SURFACE_WITH_KNOTS ('', 1, 1, ((#35, #36), (#37, #38)), .UNSPECIFIED., .F., .F., .U., (2, 2), (2, 2), (0., 81.77), (0., 2.053), .UNSPECIFIED.);
#40 = ADVANCED_FACE ('', (#34), #39, .T.);
#41 = ORIENTED_EDGE ('', *, *, #12, .T.);
#42 = CARTESIAN_POINT ('', (0., 51.71, 2.053));
#43 = VERTEX_POINT ('', #42);
#44 = CARTESIAN_POINT ('', (0., 0., 2.053));
#45 = CARTESIAN_POINT ('', (0., 51.71, 2.053));
#46 = B_SPLINE_CURVE_WITH_KNOTS ('', 1, (#44, #45), .UNSPECIFIED., .F., .U., (2, 2), (0., 51.71), .UNSPECIFIED.);
#47 = EDGE_CURVE ('', #8, #43, #46, .T.);
#48 = ORIENTED_EDGE ('', *, *, #47, .T.);
#49 = CARTESIAN_POINT ('', (0., 51.71, 0.));
#50 = VERTEX_POINT ('', #49);
#51 = CARTESIAN_POINT ('', (0., 51.71, 0.));
#52 = CARTESIAN_POINT ('', (0., 51.71, 2.053));
#53 = B_SPLINE_CURVE_WITH_KNOTS ('', 1, (#51, #52), .UNSPECIFIED., .F., .U., (2, 2), (0., 2.053), .UNSPECIFIED.);
#54 = EDGE_CURVE ('', #50, #43, #53, .T.);
#55 = ORIENTED_EDGE ('', *, *, #54, .F.);
#56 = CARTESIAN_POINT ('', (0., 0., 0.));
#57 = CARTESIAN_POINT ('', (0., 51.71, 0.));
#58 = B_SPLINE_CURVE_WITH_KNOTS ('', 1, (#56, #57), .UNSPECIFIED., .F., .U., (2, 2), (0., 51.71), .UNSPECIFIED.);
#59 = EDGE_CURVE ('', #6, #50, #58, .T.);
#60 = ORIENTED_EDGE ('', *, *, #59, .F.);
#61 = EDGE_LOOP ('', (#41, #48, #55, #60));
#62 = FACE_OUTER_BOUND ('', #61, .T.);
#63 = CARTESIAN_POINT ('', (0., 0., 0.));
#64 = CARTESIAN_POINT ('', (0., 51.71, 0.));
#65 = CARTESIAN_POINT ('', (0., 0., 2.053));
#66 = CARTESIAN_POINT ('', (0., 51.71, 2.053));
#67 = B_SPLINE_SURFACE_WITH_KNOTS ('', 1, 1, ((#63, #64), (#65, #66)), .UNSPECIFIED., .F., .F., .U., (2, 2), (2, 2), (0., 2.053), (0., 51.71), .UNSPECIFIED.);
#68 = ADVANCED_FACE ('', (#62), #67, .T.);
#69 = ORIENTED_EDGE ('', *, *, #59, .T.);
#70 = CARTESIAN_POINT ('', (81.77, 51.71, 0.));
#71 = VERTEX_POINT ('', #70);
#72 = CARTESIAN_POINT ('', (0., 51.71, 0.));
#73 = CARTESIAN_POINT ('', (81.77, 51.71, 0.));
#74 = B_SPLINE_CURVE_WITH_KNOTS ('', 1, (#72, #73), .UNSPECIFIED., .F., .U., (2, 2), (0., 81.77), .UNSPECIFIED.);
#75 = EDGE_CURVE ('', #50, #71, #74, .T.);
#76 = ORIENTED_EDGE ('', *, *, #75, .T.);
#77 = CARTESIAN_POINT ('', (81.77, 0., 0.));
#78 = CARTESIAN_POINT ('', (81.77, 51.71, 0.));
#79 = B_SPLINE_CURVE_WITH_KNOTS ('', 1, (#77, #78), .UNSPECIFIED., .F., .U., (2, 2), (0., 51.71), .UNSPECIFIED.);
#80 = EDGE_CURVE ('', #15, #71, #79, .T.);
#81 = ORIENTED_EDGE ('', *, *, #80, .F.);
#82 = ORIENTED_EDGE ('', *, *, #19, .F.);
#83 = EDGE_LOOP ('', (#69, #76, #81, #82));
#84 = FACE_OUTER_BOUND ('', #83, .T.);
#85 = CARTESIAN_POINT ('', (40.885, 34.305, 0.));
#86 = VERTEX_POINT ('', #85);
#87 = CARTESIAN_POINT ('', (40.885, 34.305, 0.));
#88 = CARTESIAN_POINT ('', (49.335, 34.305, 0.));
#89 = CARTESIAN_POINT ('', (49.335, 25.855, 0.));
#90 = CARTESIAN_POINT ('', (49.335, 17.405, 0.));
#91 = CARTESIAN_POINT ('', (40.885, 17.405, 0.));
#92 = CARTESIAN_POINT ('', (32.435, 17.405, 0.));
#93 = CARTESIAN_POINT ('', (32.435, 25.855, 0.));
#94 = CARTESIAN_POINT ('', (32.435, 34.305, 0.));
#95 = CARTESIAN_POINT ('', (40.885, 34.305, 0.));
#96 = (
   BOUNDED_CURVE ()
   B_SPLINE_CURVE (2, (#87, #88, #89, #90, #91, #92, #93, #94, #95), .UNSPECIFIED., .T., .U.)
   B_SPLINE_CURVE_WITH_KNOTS ((3, 2, 2, 2, 3), (0., 0.25, 0.5, 0.75, 1.), .UNSPECIFIED.)
   CURVE ()
   GEOMETRIC_REPRESENTATION_ITEM ()
   RATIONAL_B_SPLINE_CURVE ((1., 0.707106781186548, 1., 0.707106781186548, 1., 0.707106781186548, 1., 0.707106781186548, 1.))
   REPRESENTATION_ITEM ('')
);
#97 = EDGE_CURVE ('', #86, #86, #96, .T.);
#98 = ORIENTED_EDGE ('', *, *, #97, .F.);
#99 = EDGE_LOOP ('', (#98));
#100 = FACE_BOUND ('', #99, .T.);
#101 = CARTESIAN_POINT ('', (0., 0., 0.));
#102 = CARTESIAN_POINT ('', (81.77, 0., 0.));
#103 = CARTESIAN_POINT ('', (0., 51.71, 0.));
#104 = CARTESIAN_POINT ('', (81.77, 51.71, 0.));
#105 = B_SPLINE_SURFACE_WITH_KNOTS ('', 1, 1, ((#101, #102), (#103, #104)), .UNSPECIFIED., .F., .F., .U., (2, 2), (2, 2), (0., 51.71), (0., 81.77), .UNSPECIFIED.);
#106 = ADVANCED_FACE ('', (#84, #100), #105, .T.);
#107 = ORIENTED_EDGE ('', *, *, #47, .F.);
#108 = ORIENTED_EDGE ('', *, *, #31, .T.);
#109 = CARTESIAN_POINT ('', (81.77, 51.71, 2.053));
#110 = VERTEX_POINT ('', #109);
#111 = CARTESIAN_POINT ('', (81.77, 0., 2.053));
#112 = CARTESIAN_POINT ('', (81.77, 51.71, 2.053));
#113 = B_SPLINE_CURVE_WITH_KNOTS ('', 1, (#111, #112), .UNSPECIFIED., .F., .U., (2, 2), (0., 51.71), .UNSPECIFIED.);
#114 = EDGE_CURVE ('', #22, #110, #113, .T.);
#115 = ORIENTED_EDGE ('', *, *, #114, .T.);
#116 = CARTESIAN_POINT ('', (0., 51.71, 2.053));
#117 = CARTESIAN_POINT ('', (81.77, 51.71, 2.053));
#118 = B_SPLINE_CURVE_WITH_KNOTS ('', 1, (#116, #117), .UNSPECIFIED., .F., .U., (2, 2), (0., 81.77), .UNSPECIFIED.);
#119 = EDGE_CURVE ('', #43, #110, #118, .T.);
#120 = ORIENTED_EDGE ('', *, *, #119, .F.);
#121 = EDGE_LOOP ('', (#107, #108, #115, #120));
#122 = FACE_OUTER_BOUND ('', #121, .T.);
#123 = CARTESIAN_POINT ('', (40.885, 34.305, 2.053));
#124 = VERTEX_POINT ('', #123);
#125 = CARTESIAN_POINT ('', (40.885, 34.305, 2.053));
#126 = CARTESIAN_POINT ('', (49.335, 34.305, 2.053));
#127 = CARTESIAN_POINT ('', (49.335, 25.855, 2.053));
#128 = CARTESIAN_POINT ('', (49.335, 17.405, 2.053));
#129 = CARTESIAN_POINT ('', (40.885, 17.405, 2.053));
#130 = CARTESIAN_POINT ('', (32.435, 17.405, 2.053));
#131 = CARTESIAN_POINT ('', (32.435, 25.855, 2.053));
#132 = CARTESIAN_POINT ('', (32.435, 34.305, 2.053));
#133 = CARTESIAN_POINT ('', (40.885, 34.305, 2.053));
#134 = (
   BOUNDED_CURVE ()
   B_SPLINE_CURVE (2, (#125, #126, #127, #128, #129, #130, #131, #132, #133), .UNSPECIFIED., .T., .U.)
   B_SPLINE_CURVE_WITH_KNOTS ((3, 2, 2, 2, 3), (0., 0.25, 0.5, 0.75, 1.), .UNSPECIFIED.)
   CURVE ()
   GEOMETRIC_REPRESENTATION_ITEM ()
   RATIONAL_B_SPLINE_CURVE ((1., 0.707106781186548, 1., 0.707106781186548, 1., 0.707106781186548, 1., 0.707106781186548, 1.))
   REPRESENTATION_ITEM ('')
);
#135 = EDGE_CURVE ('', #124, #124, #134, .T.);
#136 = ORIENTED_EDGE ('', *, *, #135, .T.);
#137 = EDGE_LOOP ('', (#136));
#138 = FACE_BOUND ('', #137, .T.);
#139 = CARTESIAN_POINT ('', (0., 0., 2.053));
#140 = CARTESIAN_POINT ('', (0., 51.71, 2.053));
#141 = CARTESIAN_POINT ('', (81.77, 0., 2.053));
#142 = CARTESIAN_POINT ('', (81.77, 51.71, 2.053));
#143 = B_SPLINE_SURFACE_WITH_KNOTS ('', 1, 1, ((#139, #140), (#141, #142)), .UNSPECIFIED., .F., .F., .U., (2, 2), (2, 2), (0., 81.77), (0., 51.71), .UNSPECIFIED.);
#144 = ADVANCED_FACE ('', (#122, #138), #143, .T.);
#145 = ORIENTED_EDGE ('', *, *, #54, .T.);
#146 = ORIENTED_EDGE ('', *, *, #119, .T.);
#147 = CARTESIAN_POINT ('', (81.77, 51.71, 0.));
#148 = CARTESIAN_POINT ('', (81.77, 51.71, 2.053));
#149 = B_SPLINE_CURVE_WITH_KNOTS ('', 1, (#147, #148), .UNSPECIFIED., .F., .U., (2, 2), (0., 2.053), .UNSPECIFIED.);
#150 = EDGE_CURVE ('', #71, #110, #149, .T.);
#151 = ORIENTED_EDGE ('', *, *, #150, .F.);
#152 = ORIENTED_EDGE ('', *, *, #75, .F.);
#153 = EDGE_LOOP ('', (#145, #146, #151, #152));
#154 = FACE_OUTER_BOUND ('', #153, .T.);
#155 = CARTESIAN_POINT ('', (0., 51.71, 0.));
#156 = CARTESIAN_POINT ('', (81.77, 51.71, 0.));
#157 = CARTESIAN_POINT ('', (0., 51.71, 2.053));
#158 = CARTESIAN_POINT ('', (81.77, 51.71, 2.053));
#159 = B_SPLINE_SURFACE_WITH_KNOTS ('', 1, 1, ((#155, #156), (#157, #158)), .UNSPECIFIED., .F., .F., .U., (2, 2), (2, 2), (0., 2.053), (0., 81.77), .UNSPECIFIED.);
#160 = ADVANCED_FACE ('', (#154), #159, .T.);
#161 = ORIENTED_EDGE ('', *, *, #26, .F.);
#162 = ORIENTED_EDGE ('', *, *, #80, .T.);
#163 = ORIENTED_EDGE ('', *, *, #150, .T.);
#164 = ORIENTED_EDGE ('', *, *, #114, .F.);
#165 = EDGE_LOOP ('', (#161, #162, #163, #164));
#166 = FACE_OUTER_BOUND ('', #165, .T.);
#167 = CARTESIAN_POINT ('', (81.77, 0., 0.));
#168 = CARTESIAN_POINT ('', (81.77, 0., 2.053));
#169 = CARTESIAN_POINT ('', (81.77, 51.71, 0.));
#170 = CARTESIAN_POINT ('', (81.77, 51.71, 2.053));
#171 = B_SPLINE_SURFACE_WITH_KNOTS ('', 1, 1, ((#167, #168), (#169, #170)), .UNSPECIFIED., .F., .F., .U., (2, 2), (2, 2), (0., 51.71), (0., 2.053), .UNSPECIFIED.);
#172 = ADVANCED_FACE ('', (#166), #171, .T.);
#173 = ORIENTED_EDGE ('', *, *, #97, .F.);
#174 = CARTESIAN_POINT ('', (40.885, 34.305, 2.053));
#175 = CARTESIAN_POINT ('', (40.885, 34.305, 0.));
#176 = B_SPLINE_CURVE_WITH_KNOTS ('', 1, (#174, #175), .UNSPECIFIED., .F., .U., (2, 2), (0., 2.053), .UNSPECIFIED.);
#177 = EDGE_CURVE ('', #124, #86, #176, .T.);
#178 = ORIENTED_EDGE ('', *, *, #177, .F.);
#179 = ORIENTED_EDGE ('', *, *, #135, .T.);
#180 = ORIENTED_EDGE ('', *, *, #177, .T.);
#181 = EDGE_LOOP ('', (#173, #178, #179, #180));
#182 = FACE_OUTER_BOUND ('', #181, .F.);
#183 = CARTESIAN_POINT ('', (40.885, 34.305, 2.053));
#184 = CARTESIAN_POINT ('', (40.885, 34.305, -28.0890056794511));
#185 = CARTESIAN_POINT ('', (49.335, 34.305, 2.053));
#186 = CARTESIAN_POINT ('', (49.335, 34.305, -28.0890056794511));
#187 = CARTESIAN_POINT ('', (49.335, 25.855, 2.053));
#188 = CARTESIAN_POINT ('', (49.335, 25.855, -28.0890056794511));
#189 = CARTESIAN_POINT ('', (49.335, 17.405, 2.053));
#190 = CARTESIAN_POINT ('', (49.335, 17.405, -28.0890056794511));
#191 = CARTESIAN_POINT ('', (40.885, 17.405, 2.053));
#192 = CARTESIAN_POINT ('', (40.885, 17.405, -28.0890056794511));
#193 = CARTESIAN_POINT ('', (32.435, 17.405, 2.053));
#194 = CARTESIAN_POINT ('', (32.435, 17.405, -28.0890056794511));
#195 = CARTESIAN_POINT ('', (32.435, 25.855, 2.053));
#196 = CARTESIAN_POINT ('', (32.435, 25.855, -28.0890056794511));
#197 = CARTESIAN_POINT ('', (32.435, 34.305, 2.053));
#198 = CARTESIAN_POINT ('', (32.435, 34.305, -28.0890056794511));
#199 = CARTESIAN_POINT ('', (40.885, 34.305, 2.053));
#200 = CARTESIAN_POINT ('', (40.885, 34.305, -28.0890056794511));
#201 = (
   BOUNDED_SURFACE ()
   B_SPLINE_SURFACE (2, 1, ((#183, #184), (#185, #186), (#187, #188), (#189, #190), (#191, #192), (#193, #194), (#195, #196), (#197, #198), (#199, #200)), .UNSPECIFIED., .T., .F., .U.)
   B_SPLINE_SURFACE_WITH_KNOTS ((3, 2, 2, 2, 3), (2, 2), (0., 13.2732289614169, 26.5464579228337, 39.8196868842506, 53.0929158456675), (0., 30.1420056794511), .UNSPECIFIED.)
   SURFACE ()
   GEOMETRIC_REPRESENTATION_ITEM ()
   RATIONAL_B_SPLINE_SURFACE (((1., 1.), (0.707106781186548, 0.707106781186548), (1., 1.), (0.707106781186548, 0.707106781186548), (1., 1.), (0.707106781186548, 0.707106781186548), (1., 1.), (0.707106781186548, 0.707106781186548), (1., 1.)))
   REPRESENTATION_ITEM ('')
);
#202 = ADVANCED_FACE ('', (#182), #201, .F.);
#203 = CLOSED_SHELL ('', (#40, #68, #106, #144, #160, #172, #202));
#204 = MANIFOLD_SOLID_BREP ('', #203);
#205 = (
   LENGTH_UNIT ()
   NAMED_UNIT (*)
   SI_UNIT (.MILLI., .METRE.)
);
#206 = (
   NAMED_UNIT (*)
   SI_UNIT ($, .STERADIAN.)
   SOLID_ANGLE_UNIT ()
);
#207 = (
   NAMED_UNIT (*)
   SI_UNIT ($, .RADIAN.)
   PLANE_ANGLE_UNIT ()
);
#208 = UNCERTAINTY_MEASURE_WITH_UNIT (LENGTH_MEASURE(1.E-6), #205, 'DISTANCE_ACCURACY_VALUE', '');
#209 = (
   GEOMETRIC_REPRESENTATION_CONTEXT (3)
   GLOBAL_UNCERTAINTY_ASSIGNED_CONTEXT ((#208))
   GLOBAL_UNIT_ASSIGNED_CONTEXT ((#205, #206, #207))
   REPRESENTATION_CONTEXT ('', '3D')
);
#210 = SHAPE_REPRESENTATION ('', (), #209);
#211 = APPLICATION_CONTEXT ('configuration controlled 3D designs of mechanical parts and assemblies');
#212 = APPLICATION_PROTOCOL_DEFINITION ('International Standard', 'config_control_design', 1997, #211);
#213 = MECHANICAL_CONTEXT ('', #211, 'mechanical');
#214 = PRODUCT ('', '', '', (#213));
#215 = PERSON_AND_ORGANIZATION_ROLE ('design_owner');
#216 = PERSON ('#216', '', $, $, $, $);
#217 = ORGANIZATION ($, '', '');
#218 = PERSON_AND_ORGANIZATION (#216, #217);
#219 = CC_DESIGN_PERSON_AND_ORGANIZATION_ASSIGNMENT (#218, #215, (#214));
#220 = PRODUCT_RELATED_PRODUCT_CATEGORY ('detail', $, (#214));
#221 = PRODUCT_DEFINITION_FORMATION_WITH_SPECIFIED_SOURCE ('', '', #214, .NOT_KNOWN.);
#222 = APPROVAL_STATUS ('approved');
#223 = APPROVAL (#222, '');
#224 = CALENDAR_DATE (2026, 7, 5);
#225 = COORDINATED_UNIVERSAL_TIME_OFFSET (0, $, .AHEAD.);
#226 = LOCAL_TIME (17, 27, 28., #225);
#227 = DATE_AND_TIME (#224, #226);
#228 = APPROVAL_DATE_TIME (#227, #223);
#229 = APPROVAL_ROLE ('');
#230 = PERSON ('#230', '', $, $, $, $);
#231 = ORGANIZATION ($, '', '');
#232 = PERSON_AND_ORGANIZATION (#230, #231);
#233 = APPROVAL_PERSON_ORGANIZATION (#232, #223, #229);
#234 = CC_DESIGN_APPROVAL (#223, (#221));
#235 = PERSON_AND_ORGANIZATION_ROLE ('creator');
#236 = PERSON ('#236', '', $, $, $, $);
#237 = ORGANIZATION ($, '', '');
#238 = PERSON_AND_ORGANIZATION (#236, #237);
#239 = CC_DESIGN_PERSON_AND_ORGANIZATION_ASSIGNMENT (#238, #235, (#221));
#240 = PERSON_AND_ORGANIZATION_ROLE ('part_supplier');
#241 = PERSON ('#241', '', $, $, $, $);
#242 = ORGANIZATION ($, '', '');
#243 = PERSON_AND_ORGANIZATION (#241, #242);
#244 = CC_DESIGN_PERSON_AND_ORGANIZATION_ASSIGNMENT (#243, #240, (#221));
#245 = SECURITY_CLASSIFICATION_LEVEL ('unclassified');
#246 = SECURITY_CLASSIFICATION ('', '', #245);
#247 = APPROVAL_STATUS ('approved');
#248 = APPROVAL (#247, '');
#249 = CALENDAR_DATE (2026, 7, 5);
#250 = COORDINATED_UNIVERSAL_TIME_OFFSET (0, $, .AHEAD.);
#251 = LOCAL_TIME (17, 27, 28., #250);
#252 = DATE_AND_TIME (#249, #251);
#253 = APPROVAL_DATE_TIME (#252, #248);
#254 = APPROVAL_ROLE ('');
#255 = PERSON ('#255', '', $, $, $, $);
#256 = ORGANIZATION ($, '', '');
#257 = PERSON_AND_ORGANIZATION (#255, #256);
#258 = APPROVAL_PERSON_ORGANIZATION (#257, #248, #254);
#259 = CC_DESIGN_APPROVAL (#248, (#246));
#260 = DATE_TIME_ROLE ('classification_date');
#261 = CALENDAR_DATE (2026, 7, 5);
#262 = COORDINATED_UNIVERSAL_TIME_OFFSET (0, $, .AHEAD.);
#263 = LOCAL_TIME (17, 27, 28., #262);
#264 = DATE_AND_TIME (#261, #263);
#265 = CC_DESIGN_DATE_AND_TIME_ASSIGNMENT (#264, #260, (#246));
#266 = PERSON_AND_ORGANIZATION_ROLE ('classification_officer');
#267 = PERSON ('#267', '', $, $, $, $);
#268 = ORGANIZATION ($, '', '');
#269 = PERSON_AND_ORGANIZATION (#267, #268);
#270 = CC_DESIGN_PERSON_AND_ORGANIZATION_ASSIGNMENT (#269, #266, (#246));
#271 = CC_DESIGN_SECURITY_CLASSIFICATION (#246, (#221));
#272 = DESIGN_CONTEXT ('', #211, 'design');
#273 = PRODUCT_DEFINITION ('', '', #221, #272);
#274 = APPROVAL_STATUS ('approved');
#275 = APPROVAL (#274, '');
#276 = CALENDAR_DATE (2026, 7, 5);
#277 = COORDINATED_UNIVERSAL_TIME_OFFSET (0, $, .AHEAD.);
#278 = LOCAL_TIME (17, 27, 28., #277);
#279 = DATE_AND_TIME (#276, #278);
#280 = APPROVAL_DATE_TIME (#279, #275);
#281 = APPROVAL_ROLE ('');
#282 = PERSON ('#282', '', $, $, $, $);
#283 = ORGANIZATION ($, '', '');
#284 = PERSON_AND_ORGANIZATION (#282, #283);
#285 = APPROVAL_PERSON_ORGANIZATION (#284, #275, #281);
#286 = CC_DESIGN_APPROVAL (#275, (#273));
#287 = DATE_TIME_ROLE ('creation_date');
#288 = CALENDAR_DATE (2026, 7, 5);
#289 = COORDINATED_UNIVERSAL_TIME_OFFSET (0, $, .AHEAD.);
#290 = LOCAL_TIME (17, 27, 28., #289);
#291 = DATE_AND_TIME (#288, #290);
#292 = CC_DESIGN_DATE_AND_TIME_ASSIGNMENT (#291, #287, (#273));
#293 = PERSON_AND_ORGANIZATION_ROLE ('creator');
#294 = PERSON ('#294', '', $, $, $, $);
#295 = ORGANIZATION ($, '', '');
#296 = PERSON_AND_ORGANIZATION (#294, #295);
#297 = CC_DESIGN_PERSON_AND_ORGANIZATION_ASSIGNMENT (#296, #293, (#273));
#298 = PRODUCT_DEFINITION_SHAPE ('', '', #273);
#299 = SHAPE_DEFINITION_REPRESENTATION (#298, #210);
#300 = SHAPE_REPRESENTATION_RELATIONSHIP ('', '', #210, #301);
#301 = GEOMETRICALLY_BOUNDED_WIREFRAME_SHAPE_REPRESENTATION ('', (#4), #209);
#302 = SHAPE_REPRESENTATION_RELATIONSHIP ('', '', #210, #303);
#303 = ADVANCED_BREP_SHAPE_REPRESENTATION ('', (#204), #209);
ENDSEC;
END-ISO-10303-21;
