ISO-10303-21;
HEADER;
FILE_DESCRIPTION ((), '1');
FILE_NAME ('D:\\Moldex3D\\02. AI\\Model\\model step\\G27.stp', '2026-05-07T17:32:50', ('Unknown'), ('Unknown'), 'HarmonyWare STEP v2.1.6', 'HarmonyWare Translators', '');
FILE_SCHEMA (('CONFIG_CONTROL_DESIGN'));
ENDSEC;

DATA;
#1 = CARTESIAN_POINT ('', (0., 24.595, 2.621));
#2 = CARTESIAN_POINT ('', (-5., 24.595, 2.621));
#3 = B_SPLINE_CURVE_WITH_KNOTS ('', 1, (#1, #2), .UNSPECIFIED., .F., .U., (2, 2), (0., 1.), .UNSPECIFIED.);
#4 = GEOMETRIC_CURVE_SET ('', (#3));
#5 = CARTESIAN_POINT ('', (0., 49.19, 0.));
#6 = VERTEX_POINT ('', #5);
#7 = CARTESIAN_POINT ('', (0., 49.19, 2.621));
#8 = VERTEX_POINT ('', #7);
#9 = CARTESIAN_POINT ('', (0., 49.19, 0.));
#10 = CARTESIAN_POINT ('', (0., 49.19, 2.621));
#11 = B_SPLINE_CURVE_WITH_KNOTS ('', 1, (#9, #10), .UNSPECIFIED., .F., .U., (2, 2), (0., 2.621), .UNSPECIFIED.);
#12 = EDGE_CURVE ('', #6, #8, #11, .T.);
#13 = ORIENTED_EDGE ('', *, *, #12, .T.);
#14 = CARTESIAN_POINT ('', (97., 49.19, 2.621));
#15 = VERTEX_POINT ('', #14);
#16 = CARTESIAN_POINT ('', (0., 49.19, 2.621));
#17 = CARTESIAN_POINT ('', (97., 49.19, 2.621));
#18 = B_SPLINE_CURVE_WITH_KNOTS ('', 1, (#16, #17), .UNSPECIFIED., .F., .U., (2, 2), (0., 97.), .UNSPECIFIED.);
#19 = EDGE_CURVE ('', #8, #15, #18, .T.);
#20 = ORIENTED_EDGE ('', *, *, #19, .T.);
#21 = CARTESIAN_POINT ('', (97., 49.19, 0.));
#22 = VERTEX_POINT ('', #21);
#23 = CARTESIAN_POINT ('', (97., 49.19, 0.));
#24 = CARTESIAN_POINT ('', (97., 49.19, 2.621));
#25 = B_SPLINE_CURVE_WITH_KNOTS ('', 1, (#23, #24), .UNSPECIFIED., .F., .U., (2, 2), (0., 2.621), .UNSPECIFIED.);
#26 = EDGE_CURVE ('', #22, #15, #25, .T.);
#27 = ORIENTED_EDGE ('', *, *, #26, .F.);
#28 = CARTESIAN_POINT ('', (0., 49.19, 0.));
#29 = CARTESIAN_POINT ('', (97., 49.19, 0.));
#30 = B_SPLINE_CURVE_WITH_KNOTS ('', 1, (#28, #29), .UNSPECIFIED., .F., .U., (2, 2), (0., 97.), .UNSPECIFIED.);
#31 = EDGE_CURVE ('', #6, #22, #30, .T.);
#32 = ORIENTED_EDGE ('', *, *, #31, .F.);
#33 = EDGE_LOOP ('', (#13, #20, #27, #32));
#34 = FACE_OUTER_BOUND ('', #33, .T.);
#35 = CARTESIAN_POINT ('', (0., 49.19, 0.));
#36 = CARTESIAN_POINT ('', (97., 49.19, 0.));
#37 = CARTESIAN_POINT ('', (0., 49.19, 2.621));
#38 = CARTESIAN_POINT ('', (97., 49.19, 2.621));
#39 = B_SPLINE_SURFACE_WITH_KNOTS ('', 1, 1, ((#35, #36), (#37, #38)), .UNSPECIFIED., .F., .F., .U., (2, 2), (2, 2), (0., 2.621), (0., 97.), .UNSPECIFIED.);
#40 = ADVANCED_FACE ('', (#34), #39, .T.);
#41 = CARTESIAN_POINT ('', (0., 0., 2.621));
#42 = VERTEX_POINT ('', #41);
#43 = CARTESIAN_POINT ('', (0., 0., 2.621));
#44 = CARTESIAN_POINT ('', (0., 49.19, 2.621));
#45 = B_SPLINE_CURVE_WITH_KNOTS ('', 1, (#43, #44), .UNSPECIFIED., .F., .U., (2, 2), (0., 49.19), .UNSPECIFIED.);
#46 = EDGE_CURVE ('', #42, #8, #45, .T.);
#47 = ORIENTED_EDGE ('', *, *, #46, .F.);
#48 = CARTESIAN_POINT ('', (97., 0., 2.621));
#49 = VERTEX_POINT ('', #48);
#50 = CARTESIAN_POINT ('', (0., 0., 2.621));
#51 = CARTESIAN_POINT ('', (97., 0., 2.621));
#52 = B_SPLINE_CURVE_WITH_KNOTS ('', 1, (#50, #51), .UNSPECIFIED., .F., .U., (2, 2), (0., 97.), .UNSPECIFIED.);
#53 = EDGE_CURVE ('', #42, #49, #52, .T.);
#54 = ORIENTED_EDGE ('', *, *, #53, .T.);
#55 = CARTESIAN_POINT ('', (97., 0., 2.621));
#56 = CARTESIAN_POINT ('', (97., 49.19, 2.621));
#57 = B_SPLINE_CURVE_WITH_KNOTS ('', 1, (#55, #56), .UNSPECIFIED., .F., .U., (2, 2), (0., 49.19), .UNSPECIFIED.);
#58 = EDGE_CURVE ('', #49, #15, #57, .T.);
#59 = ORIENTED_EDGE ('', *, *, #58, .T.);
#60 = ORIENTED_EDGE ('', *, *, #19, .F.);
#61 = EDGE_LOOP ('', (#47, #54, #59, #60));
#62 = FACE_OUTER_BOUND ('', #61, .T.);
#63 = CARTESIAN_POINT ('', (48.5, 36.695, 2.621));
#64 = VERTEX_POINT ('', #63);
#65 = CARTESIAN_POINT ('', (48.5, 36.695, 2.621));
#66 = CARTESIAN_POINT ('', (60.6, 36.695, 2.621));
#67 = CARTESIAN_POINT ('', (60.6, 24.595, 2.621));
#68 = CARTESIAN_POINT ('', (60.6, 12.495, 2.621));
#69 = CARTESIAN_POINT ('', (48.5, 12.495, 2.621));
#70 = CARTESIAN_POINT ('', (36.4, 12.495, 2.621));
#71 = CARTESIAN_POINT ('', (36.4, 24.595, 2.621));
#72 = CARTESIAN_POINT ('', (36.4, 36.695, 2.621));
#73 = CARTESIAN_POINT ('', (48.5, 36.695, 2.621));
#74 = (
   BOUNDED_CURVE ()
   B_SPLINE_CURVE (2, (#65, #66, #67, #68, #69, #70, #71, #72, #73), .UNSPECIFIED., .T., .U.)
   B_SPLINE_CURVE_WITH_KNOTS ((3, 2, 2, 2, 3), (0., 0.25, 0.5, 0.75, 1.), .UNSPECIFIED.)
   CURVE ()
   GEOMETRIC_REPRESENTATION_ITEM ()
   RATIONAL_B_SPLINE_CURVE ((1., 0.707106781186548, 1., 0.707106781186548, 1., 0.707106781186548, 1., 0.707106781186548, 1.))
   REPRESENTATION_ITEM ('')
);
#75 = EDGE_CURVE ('', #64, #64, #74, .T.);
#76 = ORIENTED_EDGE ('', *, *, #75, .T.);
#77 = EDGE_LOOP ('', (#76));
#78 = FACE_BOUND ('', #77, .T.);
#79 = CARTESIAN_POINT ('', (0., 0., 2.621));
#80 = CARTESIAN_POINT ('', (0., 49.19, 2.621));
#81 = CARTESIAN_POINT ('', (97., 0., 2.621));
#82 = CARTESIAN_POINT ('', (97., 49.19, 2.621));
#83 = B_SPLINE_SURFACE_WITH_KNOTS ('', 1, 1, ((#79, #80), (#81, #82)), .UNSPECIFIED., .F., .F., .U., (2, 2), (2, 2), (0., 97.), (0., 49.19), .UNSPECIFIED.);
#84 = ADVANCED_FACE ('', (#62, #78), #83, .T.);
#85 = CARTESIAN_POINT ('', (0., 0., 0.));
#86 = VERTEX_POINT ('', #85);
#87 = CARTESIAN_POINT ('', (0., 0., 0.));
#88 = CARTESIAN_POINT ('', (0., 0., 2.621));
#89 = B_SPLINE_CURVE_WITH_KNOTS ('', 1, (#87, #88), .UNSPECIFIED., .F., .U., (2, 2), (0., 2.621), .UNSPECIFIED.);
#90 = EDGE_CURVE ('', #86, #42, #89, .T.);
#91 = ORIENTED_EDGE ('', *, *, #90, .F.);
#92 = CARTESIAN_POINT ('', (97., 0., 0.));
#93 = VERTEX_POINT ('', #92);
#94 = CARTESIAN_POINT ('', (0., 0., 0.));
#95 = CARTESIAN_POINT ('', (97., 0., 0.));
#96 = B_SPLINE_CURVE_WITH_KNOTS ('', 1, (#94, #95), .UNSPECIFIED., .F., .U., (2, 2), (0., 97.), .UNSPECIFIED.);
#97 = EDGE_CURVE ('', #86, #93, #96, .T.);
#98 = ORIENTED_EDGE ('', *, *, #97, .T.);
#99 = CARTESIAN_POINT ('', (97., 0., 0.));
#100 = CARTESIAN_POINT ('', (97., 0., 2.621));
#101 = B_SPLINE_CURVE_WITH_KNOTS ('', 1, (#99, #100), .UNSPECIFIED., .F., .U., (2, 2), (0., 2.621), .UNSPECIFIED.);
#102 = EDGE_CURVE ('', #93, #49, #101, .T.);
#103 = ORIENTED_EDGE ('', *, *, #102, .T.);
#104 = ORIENTED_EDGE ('', *, *, #53, .F.);
#105 = EDGE_LOOP ('', (#91, #98, #103, #104));
#106 = FACE_OUTER_BOUND ('', #105, .T.);
#107 = CARTESIAN_POINT ('', (0., 0., 0.));
#108 = CARTESIAN_POINT ('', (0., 0., 2.621));
#109 = CARTESIAN_POINT ('', (97., 0., 0.));
#110 = CARTESIAN_POINT ('', (97., 0., 2.621));
#111 = B_SPLINE_SURFACE_WITH_KNOTS ('', 1, 1, ((#107, #108), (#109, #110)), .UNSPECIFIED., .F., .F., .U., (2, 2), (2, 2), (0., 97.), (0., 2.621), .UNSPECIFIED.);
#112 = ADVANCED_FACE ('', (#106), #111, .T.);
#113 = CARTESIAN_POINT ('', (0., 0., 0.));
#114 = CARTESIAN_POINT ('', (0., 49.19, 0.));
#115 = B_SPLINE_CURVE_WITH_KNOTS ('', 1, (#113, #114), .UNSPECIFIED., .F., .U., (2, 2), (0., 49.19), .UNSPECIFIED.);
#116 = EDGE_CURVE ('', #86, #6, #115, .T.);
#117 = ORIENTED_EDGE ('', *, *, #116, .T.);
#118 = ORIENTED_EDGE ('', *, *, #31, .T.);
#119 = CARTESIAN_POINT ('', (97., 0., 0.));
#120 = CARTESIAN_POINT ('', (97., 49.19, 0.));
#121 = B_SPLINE_CURVE_WITH_KNOTS ('', 1, (#119, #120), .UNSPECIFIED., .F., .U., (2, 2), (0., 49.19), .UNSPECIFIED.);
#122 = EDGE_CURVE ('', #93, #22, #121, .T.);
#123 = ORIENTED_EDGE ('', *, *, #122, .F.);
#124 = ORIENTED_EDGE ('', *, *, #97, .F.);
#125 = EDGE_LOOP ('', (#117, #118, #123, #124));
#126 = FACE_OUTER_BOUND ('', #125, .T.);
#127 = CARTESIAN_POINT ('', (48.5, 36.695, 0.));
#128 = VERTEX_POINT ('', #127);
#129 = CARTESIAN_POINT ('', (48.5, 36.695, 0.));
#130 = CARTESIAN_POINT ('', (60.6, 36.695, 0.));
#131 = CARTESIAN_POINT ('', (60.6, 24.595, 0.));
#132 = CARTESIAN_POINT ('', (60.6, 12.495, 0.));
#133 = CARTESIAN_POINT ('', (48.5, 12.495, 0.));
#134 = CARTESIAN_POINT ('', (36.4, 12.495, 0.));
#135 = CARTESIAN_POINT ('', (36.4, 24.595, 0.));
#136 = CARTESIAN_POINT ('', (36.4, 36.695, 0.));
#137 = CARTESIAN_POINT ('', (48.5, 36.695, 0.));
#138 = (
   BOUNDED_CURVE ()
   B_SPLINE_CURVE (2, (#129, #130, #131, #132, #133, #134, #135, #136, #137), .UNSPECIFIED., .T., .U.)
   B_SPLINE_CURVE_WITH_KNOTS ((3, 2, 2, 2, 3), (0., 0.25, 0.5, 0.75, 1.), .UNSPECIFIED.)
   CURVE ()
   GEOMETRIC_REPRESENTATION_ITEM ()
   RATIONAL_B_SPLINE_CURVE ((1., 0.707106781186548, 1., 0.707106781186548, 1., 0.707106781186548, 1., 0.707106781186548, 1.))
   REPRESENTATION_ITEM ('')
);
#139 = EDGE_CURVE ('', #128, #128, #138, .T.);
#140 = ORIENTED_EDGE ('', *, *, #139, .F.);
#141 = EDGE_LOOP ('', (#140));
#142 = FACE_BOUND ('', #141, .T.);
#143 = CARTESIAN_POINT ('', (0., 0., 0.));
#144 = CARTESIAN_POINT ('', (97., 0., 0.));
#145 = CARTESIAN_POINT ('', (0., 49.19, 0.));
#146 = CARTESIAN_POINT ('', (97., 49.19, 0.));
#147 = B_SPLINE_SURFACE_WITH_KNOTS ('', 1, 1, ((#143, #144), (#145, #146)), .UNSPECIFIED., .F., .F., .U., (2, 2), (2, 2), (0., 49.19), (0., 97.), .UNSPECIFIED.);
#148 = ADVANCED_FACE ('', (#126, #142), #147, .T.);
#149 = ORIENTED_EDGE ('', *, *, #102, .F.);
#150 = ORIENTED_EDGE ('', *, *, #122, .T.);
#151 = ORIENTED_EDGE ('', *, *, #26, .T.);
#152 = ORIENTED_EDGE ('', *, *, #58, .F.);
#153 = EDGE_LOOP ('', (#149, #150, #151, #152));
#154 = FACE_OUTER_BOUND ('', #153, .T.);
#155 = CARTESIAN_POINT ('', (97., 0., 0.));
#156 = CARTESIAN_POINT ('', (97., 0., 2.621));
#157 = CARTESIAN_POINT ('', (97., 49.19, 0.));
#158 = CARTESIAN_POINT ('', (97., 49.19, 2.621));
#159 = B_SPLINE_SURFACE_WITH_KNOTS ('', 1, 1, ((#155, #156), (#157, #158)), .UNSPECIFIED., .F., .F., .U., (2, 2), (2, 2), (0., 49.19), (0., 2.621), .UNSPECIFIED.);
#160 = ADVANCED_FACE ('', (#154), #159, .T.);
#161 = ORIENTED_EDGE ('', *, *, #90, .T.);
#162 = ORIENTED_EDGE ('', *, *, #46, .T.);
#163 = ORIENTED_EDGE ('', *, *, #12, .F.);
#164 = ORIENTED_EDGE ('', *, *, #116, .F.);
#165 = EDGE_LOOP ('', (#161, #162, #163, #164));
#166 = FACE_OUTER_BOUND ('', #165, .T.);
#167 = CARTESIAN_POINT ('', (0., 0., 0.));
#168 = CARTESIAN_POINT ('', (0., 49.19, 0.));
#169 = CARTESIAN_POINT ('', (0., 0., 2.621));
#170 = CARTESIAN_POINT ('', (0., 49.19, 2.621));
#171 = B_SPLINE_SURFACE_WITH_KNOTS ('', 1, 1, ((#167, #168), (#169, #170)), .UNSPECIFIED., .F., .F., .U., (2, 2), (2, 2), (0., 2.621), (0., 49.19), .UNSPECIFIED.);
#172 = ADVANCED_FACE ('', (#166), #171, .T.);
#173 = ORIENTED_EDGE ('', *, *, #139, .F.);
#174 = CARTESIAN_POINT ('', (48.5, 36.695, 2.621));
#175 = CARTESIAN_POINT ('', (48.5, 36.695, 0.));
#176 = B_SPLINE_CURVE_WITH_KNOTS ('', 1, (#174, #175), .UNSPECIFIED., .F., .U., (2, 2), (0., 2.621), .UNSPECIFIED.);
#177 = EDGE_CURVE ('', #64, #128, #176, .T.);
#178 = ORIENTED_EDGE ('', *, *, #177, .F.);
#179 = ORIENTED_EDGE ('', *, *, #75, .T.);
#180 = ORIENTED_EDGE ('', *, *, #177, .T.);
#181 = EDGE_LOOP ('', (#173, #178, #179, #180));
#182 = FACE_OUTER_BOUND ('', #181, .F.);
#183 = CARTESIAN_POINT ('', (48.5, 36.695, 2.621));
#184 = CARTESIAN_POINT ('', (48.5, 36.695, -54.2217952314481));
#185 = CARTESIAN_POINT ('', (60.6, 36.695, 2.621));
#186 = CARTESIAN_POINT ('', (60.6, 36.695, -54.2217952314481));
#187 = CARTESIAN_POINT ('', (60.6, 24.595, 2.621));
#188 = CARTESIAN_POINT ('', (60.6, 24.595, -54.2217952314481));
#189 = CARTESIAN_POINT ('', (60.6, 12.495, 2.621));
#190 = CARTESIAN_POINT ('', (60.6, 12.495, -54.2217952314481));
#191 = CARTESIAN_POINT ('', (48.5, 12.495, 2.621));
#192 = CARTESIAN_POINT ('', (48.5, 12.495, -54.2217952314481));
#193 = CARTESIAN_POINT ('', (36.4, 12.495, 2.621));
#194 = CARTESIAN_POINT ('', (36.4, 12.495, -54.2217952314481));
#195 = CARTESIAN_POINT ('', (36.4, 24.595, 2.621));
#196 = CARTESIAN_POINT ('', (36.4, 24.595, -54.2217952314481));
#197 = CARTESIAN_POINT ('', (36.4, 36.695, 2.621));
#198 = CARTESIAN_POINT ('', (36.4, 36.695, -54.2217952314481));
#199 = CARTESIAN_POINT ('', (48.5, 36.695, 2.621));
#200 = CARTESIAN_POINT ('', (48.5, 36.695, -54.2217952314481));
#201 = (
   BOUNDED_SURFACE ()
   B_SPLINE_SURFACE (2, 1, ((#183, #184), (#185, #186), (#187, #188), (#189, #190), (#191, #192), (#193, #194), (#195, #196), (#197, #198), (#199, #200)), .UNSPECIFIED., .T., .F., .U.)
   B_SPLINE_SURFACE_WITH_KNOTS ((3, 2, 2, 2, 3), (2, 2), (0., 19.0066355542183, 38.0132711084365, 57.0199066626548, 76.026542216873), (0., 56.8427952314481), .UNSPECIFIED.)
   SURFACE ()
   GEOMETRIC_REPRESENTATION_ITEM ()
   RATIONAL_B_SPLINE_SURFACE (((1., 1.), (0.707106781186548, 0.707106781186548), (1., 1.), (0.707106781186548, 0.707106781186548), (1., 1.), (0.707106781186548, 0.707106781186548), (1., 1.), (0.707106781186548, 0.707106781186548), (1., 1.)))
   REPRESENTATION_ITEM ('')
);
#202 = ADVANCED_FACE ('', (#182), #201, .F.);
#203 = CLOSED_SHELL ('', (#40, #84, #112, #148, #160, #172, #202));
#204 = MANIFOLD_SOLID_BREP ('', #203);
#205 = (
   LENGTH_UNIT ()
   NAMED_UNIT (*)
   SI_UNIT (.MILLI., .METRE.)
);
#206 = (
   NAMED_UNIT (*)
   SI_UNIT ($, .STERADIAN.)
   SOLID_ANGLE_UNIT ()
);
#207 = (
   NAMED_UNIT (*)
   SI_UNIT ($, .RADIAN.)
   PLANE_ANGLE_UNIT ()
);
#208 = UNCERTAINTY_MEASURE_WITH_UNIT (LENGTH_MEASURE(1.E-6), #205, 'DISTANCE_ACCURACY_VALUE', '');
#209 = (
   GEOMETRIC_REPRESENTATION_CONTEXT (3)
   GLOBAL_UNCERTAINTY_ASSIGNED_CONTEXT ((#208))
   GLOBAL_UNIT_ASSIGNED_CONTEXT ((#205, #206, #207))
   REPRESENTATION_CONTEXT ('', '3D')
);
#210 = SHAPE_REPRESENTATION ('', (), #209);
#211 = APPLICATION_CONTEXT ('configuration controlled 3D designs of mechanical parts and assemblies');
#212 = APPLICATION_PROTOCOL_DEFINITION ('International Standard', 'config_control_design', 1997, #211);
#213 = MECHANICAL_CONTEXT ('', #211, 'mechanical');
#214 = PRODUCT ('', '', '', (#213));
#215 = PERSON_AND_ORGANIZATION_ROLE ('design_owner');
#216 = PERSON ('#216', '', $, $, $, $);
#217 = ORGANIZATION ($, '', '');
#218 = PERSON_AND_ORGANIZATION (#216, #217);
#219 = CC_DESIGN_PERSON_AND_ORGANIZATION_ASSIGNMENT (#218, #215, (#214));
#220 = PRODUCT_RELATED_PRODUCT_CATEGORY ('detail', $, (#214));
#221 = PRODUCT_DEFINITION_FORMATION_WITH_SPECIFIED_SOURCE ('', '', #214, .NOT_KNOWN.);
#222 = APPROVAL_STATUS ('approved');
#223 = APPROVAL (#222, '');
#224 = CALENDAR_DATE (2026, 7, 5);
#225 = COORDINATED_UNIVERSAL_TIME_OFFSET (0, $, .AHEAD.);
#226 = LOCAL_TIME (17, 32, 50., #225);
#227 = DATE_AND_TIME (#224, #226);
#228 = APPROVAL_DATE_TIME (#227, #223);
#229 = APPROVAL_ROLE ('');
#230 = PERSON ('#230', '', $, $, $, $);
#231 = ORGANIZATION ($, '', '');
#232 = PERSON_AND_ORGANIZATION (#230, #231);
#233 = APPROVAL_PERSON_ORGANIZATION (#232, #223, #229);
#234 = CC_DESIGN_APPROVAL (#223, (#221));
#235 = PERSON_AND_ORGANIZATION_ROLE ('creator');
#236 = PERSON ('#236', '', $, $, $, $);
#237 = ORGANIZATION ($, '', '');
#238 = PERSON_AND_ORGANIZATION (#236, #237);
#239 = CC_DESIGN_PERSON_AND_ORGANIZATION_ASSIGNMENT (#238, #235, (#221));
#240 = PERSON_AND_ORGANIZATION_ROLE ('part_supplier');
#241 = PERSON ('#241', '', $, $, $, $);
#242 = ORGANIZATION ($, '', '');
#243 = PERSON_AND_ORGANIZATION (#241, #242);
#244 = CC_DESIGN_PERSON_AND_ORGANIZATION_ASSIGNMENT (#243, #240, (#221));
#245 = SECURITY_CLASSIFICATION_LEVEL ('unclassified');
#246 = SECURITY_CLASSIFICATION ('', '', #245);
#247 = APPROVAL_STATUS ('approved');
#248 = APPROVAL (#247, '');
#249 = CALENDAR_DATE (2026, 7, 5);
#250 = COORDINATED_UNIVERSAL_TIME_OFFSET (0, $, .AHEAD.);
#251 = LOCAL_TIME (17, 32, 50., #250);
#252 = DATE_AND_TIME (#249, #251);
#253 = APPROVAL_DATE_TIME (#252, #248);
#254 = APPROVAL_ROLE ('');
#255 = PERSON ('#255', '', $, $, $, $);
#256 = ORGANIZATION ($, '', '');
#257 = PERSON_AND_ORGANIZATION (#255, #256);
#258 = APPROVAL_PERSON_ORGANIZATION (#257, #248, #254);
#259 = CC_DESIGN_APPROVAL (#248, (#246));
#260 = DATE_TIME_ROLE ('classification_date');
#261 = CALENDAR_DATE (2026, 7, 5);
#262 = COORDINATED_UNIVERSAL_TIME_OFFSET (0, $, .AHEAD.);
#263 = LOCAL_TIME (17, 32, 50., #262);
#264 = DATE_AND_TIME (#261, #263);
#265 = CC_DESIGN_DATE_AND_TIME_ASSIGNMENT (#264, #260, (#246));
#266 = PERSON_AND_ORGANIZATION_ROLE ('classification_officer');
#267 = PERSON ('#267', '', $, $, $, $);
#268 = ORGANIZATION ($, '', '');
#269 = PERSON_AND_ORGANIZATION (#267, #268);
#270 = CC_DESIGN_PERSON_AND_ORGANIZATION_ASSIGNMENT (#269, #266, (#246));
#271 = CC_DESIGN_SECURITY_CLASSIFICATION (#246, (#221));
#272 = DESIGN_CONTEXT ('', #211, 'design');
#273 = PRODUCT_DEFINITION ('', '', #221, #272);
#274 = APPROVAL_STATUS ('approved');
#275 = APPROVAL (#274, '');
#276 = CALENDAR_DATE (2026, 7, 5);
#277 = COORDINATED_UNIVERSAL_TIME_OFFSET (0, $, .AHEAD.);
#278 = LOCAL_TIME (17, 32, 50., #277);
#279 = DATE_AND_TIME (#276, #278);
#280 = APPROVAL_DATE_TIME (#279, #275);
#281 = APPROVAL_ROLE ('');
#282 = PERSON ('#282', '', $, $, $, $);
#283 = ORGANIZATION ($, '', '');
#284 = PERSON_AND_ORGANIZATION (#282, #283);
#285 = APPROVAL_PERSON_ORGANIZATION (#284, #275, #281);
#286 = CC_DESIGN_APPROVAL (#275, (#273));
#287 = DATE_TIME_ROLE ('creation_date');
#288 = CALENDAR_DATE (2026, 7, 5);
#289 = COORDINATED_UNIVERSAL_TIME_OFFSET (0, $, .AHEAD.);
#290 = LOCAL_TIME (17, 32, 50., #289);
#291 = DATE_AND_TIME (#288, #290);
#292 = CC_DESIGN_DATE_AND_TIME_ASSIGNMENT (#291, #287, (#273));
#293 = PERSON_AND_ORGANIZATION_ROLE ('creator');
#294 = PERSON ('#294', '', $, $, $, $);
#295 = ORGANIZATION ($, '', '');
#296 = PERSON_AND_ORGANIZATION (#294, #295);
#297 = CC_DESIGN_PERSON_AND_ORGANIZATION_ASSIGNMENT (#296, #293, (#273));
#298 = PRODUCT_DEFINITION_SHAPE ('', '', #273);
#299 = SHAPE_DEFINITION_REPRESENTATION (#298, #210);
#300 = SHAPE_REPRESENTATION_RELATIONSHIP ('', '', #210, #301);
#301 = GEOMETRICALLY_BOUNDED_WIREFRAME_SHAPE_REPRESENTATION ('', (#4), #209);
#302 = SHAPE_REPRESENTATION_RELATIONSHIP ('', '', #210, #303);
#303 = ADVANCED_BREP_SHAPE_REPRESENTATION ('', (#204), #209);
ENDSEC;
END-ISO-10303-21;
